<svg width="23" height="23" viewBox="0 0 23 23" fill="none" xmlns="http://www.w3.org/2000/svg">
<path d="M11.386 0C9.13405 0 6.93269 0.653232 5.06028 1.87709C3.18786 3.10095 1.72849 4.84047 0.866711 6.87567C0.00493335 8.91087 -0.220547 11.1504 0.218784 13.3109C0.658114 15.4715 1.74252 17.4561 3.33488 19.0138C4.92724 20.5714 6.95603 21.6322 9.16469 22.062C11.3734 22.4917 13.6627 22.2712 15.7432 21.4282C17.8237 20.5852 19.602 19.1576 20.8531 17.3259C22.1042 15.4943 22.772 13.3409 22.772 11.138C22.7717 8.1841 21.572 5.35125 19.4368 3.26253C17.3016 1.17381 14.4057 0.000259399 11.386 0V0ZM17.079 17.4035C13.8708 17.4006 10.7948 16.1527 8.52622 13.9335C6.25766 11.7144 4.98191 8.70539 4.979 5.56704C4.979 5.38232 5.05401 5.20517 5.18754 5.07455C5.32106 4.94393 5.50216 4.87055 5.691 4.87055H8.31999C8.50883 4.87055 8.68993 4.94393 8.82345 5.07455C8.95698 5.20517 9.03199 5.38232 9.03199 5.56704C9.02771 6.74683 9.30147 7.91172 9.83199 8.97124C9.87307 9.0537 9.89712 9.14327 9.90277 9.23483C9.90841 9.32638 9.89554 9.41813 9.86488 9.50482C9.83423 9.5915 9.7864 9.67142 9.72413 9.74C9.66186 9.80858 9.58637 9.86446 9.50199 9.90446L8.43999 10.4053C9.32307 11.9116 10.6001 13.1609 12.14 14.0247L12.652 12.9878C12.6929 12.9053 12.75 12.8314 12.8201 12.7705C12.8902 12.7096 12.9719 12.6628 13.0605 12.6328C13.1491 12.6028 13.2429 12.5902 13.3365 12.5958C13.4301 12.6013 13.5217 12.6248 13.606 12.665C14.6893 13.1835 15.88 13.4513 17.086 13.4476C17.2748 13.4476 17.4559 13.521 17.5894 13.6516C17.723 13.7822 17.798 13.9593 17.798 14.1441V16.7138C17.7971 16.8053 17.7777 16.8957 17.7411 16.9799C17.7045 17.064 17.6513 17.1403 17.5845 17.2043C17.5177 17.2684 17.4387 17.3189 17.352 17.3531C17.2653 17.3873 17.1725 17.4044 17.079 17.4035Z" fill="#4436A5"/>
</svg>
