<svg width="27" height="20" viewBox="0 0 27 20" fill="none" xmlns="http://www.w3.org/2000/svg">
<path d="M26.463 2.22363L18.363 10.0934L26.463 17.9632C26.6158 17.6569 26.6962 17.3209 26.698 16.9801V3.20674C26.6962 2.86593 26.6158 2.52991 26.463 2.22363Z" fill="#4436A5"/>
<path d="M24.3522 0.912842H2.34607C1.99767 0.914645 1.65416 0.993219 1.34106 1.14272L11.6901 11.2184C12.1303 11.6484 12.727 11.8899 13.3491 11.8899C13.9712 11.8899 14.5679 11.6484 15.0081 11.2184L25.3572 1.14272C25.0441 0.993219 24.7006 0.914645 24.3522 0.912842Z" fill="#4436A5"/>
<path d="M0.234999 2.22363C0.0821657 2.52991 0.00184358 2.86593 0 3.20674L0 16.9791C0.00184358 17.3199 0.0821657 17.6559 0.234999 17.9622L8.33496 10.0924L0.234999 2.22363Z" fill="#4436A5"/>
<path d="M17.2599 11.176L16.1139 12.2971C15.38 13.0133 14.3856 13.4155 13.3489 13.4155C12.3122 13.4155 11.3178 13.0133 10.5839 12.2971L9.43791 11.176L1.33789 19.0458C1.65098 19.1953 1.99449 19.2739 2.34289 19.2757H24.3519C24.7003 19.2739 25.0438 19.1953 25.3569 19.0458L17.2599 11.176Z" fill="#4436A5"/>
</svg>
