<svg width="59" height="62" viewBox="0 0 59 62" fill="none" xmlns="http://www.w3.org/2000/svg">
<path d="M58.32 14.026C58.3417 14.1087 58.3527 14.1939 58.3529 14.2795V27.5877C58.3529 27.7585 58.3093 27.9263 58.2263 28.0741C58.1434 28.2219 58.0241 28.3444 57.8805 28.4294L47.0582 34.8603V47.6069C47.0582 47.9538 46.8796 48.274 46.5881 48.4486L23.9974 61.8708C23.9457 61.9011 23.8893 61.9205 23.8329 61.9411C23.8117 61.9484 23.7917 61.9617 23.7694 61.9678C23.6115 62.0107 23.4455 62.0107 23.2876 61.9678C23.2617 61.9605 23.2382 61.946 23.2136 61.9363C23.1618 61.9169 23.1078 61.8999 23.0584 61.8708L0.472427 48.4486C0.328945 48.3636 0.209725 48.2409 0.126785 48.0932C0.0438445 47.9454 0.000113687 47.7776 0 47.6069L0 7.68246C0 7.59513 0.0117519 7.51023 0.0329054 7.42775C0.0399565 7.39985 0.0564092 7.37438 0.0658107 7.34649C0.0834386 7.29554 0.0998913 7.24339 0.125745 7.19608C0.143373 7.16455 0.169228 7.13908 0.190381 7.10997C0.21741 7.07115 0.242089 7.03113 0.27382 6.99717C0.300849 6.96927 0.336105 6.94865 0.36666 6.92439C0.40074 6.89528 0.431295 6.86374 0.470076 6.8407H0.471252L11.7648 0.129626C11.9078 0.0446982 12.0699 0 12.2349 0C12.3999 0 12.562 0.0446982 12.705 0.129626L23.9986 6.8407H24.0009C24.0385 6.86496 24.0703 6.89528 24.1043 6.92318C24.1349 6.94744 24.169 6.96927 24.196 6.99595C24.2289 7.03113 24.2524 7.07115 24.2806 7.10997C24.3006 7.13908 24.3276 7.16455 24.3441 7.19608C24.3711 7.2446 24.3864 7.29554 24.4052 7.34649C24.4146 7.37438 24.431 7.39985 24.4381 7.42896C24.4597 7.51162 24.4708 7.59684 24.471 7.68246V32.6188L33.8819 27.0261V14.2783C33.8819 14.1934 33.8937 14.1073 33.9148 14.026C33.9231 13.9969 33.9383 13.9714 33.9477 13.9435C33.9665 13.8926 33.983 13.8404 34.0089 13.7931C34.0265 13.7616 34.0523 13.7361 34.0723 13.707C34.1005 13.6682 34.124 13.6282 34.1569 13.5942C34.184 13.5663 34.218 13.5457 34.2486 13.5215C34.2839 13.4923 34.3144 13.4608 34.352 13.4378H34.3532L45.6479 6.72669C45.7909 6.64164 45.953 6.59687 46.118 6.59687C46.283 6.59687 46.4451 6.64164 46.5881 6.72669L57.8817 13.4378C57.9216 13.462 57.9522 13.4923 57.9875 13.5202C58.0168 13.5445 58.0509 13.5663 58.0779 13.593C58.1109 13.6282 58.1344 13.6682 58.1626 13.707C58.1837 13.7361 58.2096 13.7616 58.226 13.7931C58.2531 13.8404 58.2683 13.8926 58.2871 13.9435C58.2977 13.9714 58.313 13.9969 58.32 14.026ZM56.4703 27.0261V15.9594L52.5181 18.3076L47.0582 21.5522V32.6188L56.4715 27.0261H56.4703ZM45.1767 47.0453V35.9713L39.8061 39.1371L24.4698 48.1709V59.3491L45.1767 47.0453ZM1.88266 9.36236V47.0453L22.5872 59.3479V48.1721L11.7707 41.854L11.7672 41.8516L11.7625 41.8491C11.7261 41.8273 11.6955 41.7958 11.6614 41.7691C11.632 41.7448 11.598 41.7254 11.5721 41.6987L11.5698 41.6951C11.5392 41.6648 11.518 41.6272 11.4922 41.5932C11.4687 41.5605 11.4405 41.5326 11.4217 41.4986L11.4205 41.495C11.3994 41.4586 11.3864 41.4149 11.3711 41.3737C11.3559 41.3373 11.3359 41.3033 11.3265 41.2645V41.2633C11.3147 41.2172 11.3124 41.1687 11.3077 41.1214C11.303 41.085 11.2936 41.0486 11.2936 41.0122V14.9551L5.83482 11.7094L1.88266 9.36357V9.36236ZM12.2361 2.09213L2.82633 7.68246L12.2337 13.2728L21.6423 7.68125L12.2337 2.09213H12.2361ZM17.1296 36.9805L22.5884 33.7371V9.36236L18.6362 11.7106L13.1762 14.9551V39.3299L17.1296 36.9805ZM46.118 8.68919L36.7094 14.2795L46.118 19.8699L55.5254 14.2783L46.118 8.68919ZM45.1767 21.5522L39.7168 18.3076L35.7646 15.9594V27.0261L41.2234 30.2694L45.1767 32.6188V21.5522ZM23.5273 46.491L37.3276 38.3596L44.226 34.2963L34.8244 28.7096L23.9998 35.1417L14.134 41.0037L23.5273 46.491Z" fill="#FF2D20"/>
</svg>
