<svg width="24" height="25" viewBox="0 0 24 25" fill="none" xmlns="http://www.w3.org/2000/svg">
<path d="M23.309 15.2158C23.6961 13.4315 23.6285 11.5815 23.1123 9.82887C22.5961 8.0762 21.6471 6.47464 20.349 5.16533C19.0508 3.85603 17.4434 2.87918 15.6683 2.32088C13.8932 1.76258 12.005 1.63996 10.17 1.96384C9.17029 1.35282 8.02246 1.01281 6.84415 0.97868C5.66585 0.944548 4.49946 1.21751 3.46452 1.7696C2.42959 2.32169 1.56333 3.13304 0.95454 4.1205C0.345747 5.10796 0.0163124 6.23601 7.45944e-07 7.38904C-0.00055961 8.52942 0.314596 9.64866 0.912002 10.6279C0.551632 12.4159 0.645808 14.263 1.18625 16.007C1.72669 17.751 2.69685 19.3384 4.01143 20.6297C5.32601 21.9209 6.94475 22.8765 8.72533 23.4123C10.5059 23.9482 12.3938 24.0479 14.223 23.7028C15.1902 24.2031 16.2679 24.464 17.362 24.4629C18.482 24.4744 19.5863 24.205 20.5696 23.6804C21.5529 23.1557 22.3823 22.3933 22.9787 21.466C23.5752 20.5386 23.9187 19.4772 23.9765 18.383C24.0343 17.2888 23.8045 16.1984 23.309 15.2158V15.2158ZM12.1 20.4316C9.75802 20.4316 7.47001 19.8789 6.11601 17.9861C4.09801 15.1942 6.75901 13.7973 8.06501 14.8617C9.15501 15.7606 8.81301 17.9352 12.014 17.9352C13.425 17.9352 15.167 17.3483 15.167 15.9788C15.167 13.2251 8.92201 14.5281 6.43901 11.5259C5.94856 10.8826 5.68629 10.1002 5.69207 9.29767C5.69784 8.49516 5.97135 7.71644 6.47101 7.07992C8.42301 4.62264 14.151 4.47297 16.614 6.32865C18.888 8.05032 18.274 10.3393 16.439 10.3393C14.232 10.3393 15.392 7.51425 11.829 7.51425C9.24601 7.51425 8.22901 9.31124 10.049 10.1858C12.47 11.3596 18.799 10.9948 18.799 15.6638C18.791 18.9467 15.552 20.4316 12.1 20.4316Z" fill="#4436A5"/>
</svg>
