<svg width="24" height="24" viewBox="0 0 24 24" fill="none" xmlns="http://www.w3.org/2000/svg">
<circle cx="12" cy="12" r="11" stroke="white" stroke-width="2"/>
<path d="M11.5589 17.1392C10.843 17.1392 10.2067 17.0166 9.64986 16.7713C9.09635 16.526 8.65885 16.1847 8.33736 15.7472C8.01586 15.3097 7.84517 14.8042 7.82528 14.2308H9.6946C9.71117 14.5059 9.80232 14.7462 9.96804 14.9517C10.1338 15.1539 10.3542 15.3113 10.6293 15.424C10.9044 15.5367 11.2126 15.593 11.554 15.593C11.9186 15.593 12.2417 15.5301 12.5234 15.4041C12.8052 15.2749 13.0256 15.0959 13.1847 14.8672C13.3438 14.6385 13.4216 14.375 13.4183 14.0767C13.4216 13.7685 13.3421 13.4967 13.1797 13.2614C13.0173 13.026 12.782 12.8421 12.4737 12.7095C12.1688 12.5769 11.8009 12.5107 11.37 12.5107H10.4702V11.0888H11.37C11.7247 11.0888 12.0346 11.0275 12.2997 10.9048C12.5682 10.7822 12.7786 10.6098 12.9311 10.3878C13.0836 10.1624 13.1581 9.90223 13.1548 9.60724C13.1581 9.31889 13.0935 9.06866 12.9609 8.85653C12.8317 8.6411 12.6477 8.47372 12.4091 8.3544C12.1738 8.23508 11.897 8.17543 11.5788 8.17543C11.2673 8.17543 10.9789 8.23177 10.7138 8.34446C10.4486 8.45715 10.2348 8.6179 10.0724 8.8267C9.91004 9.0322 9.82386 9.27746 9.81392 9.5625H8.03906C8.05232 8.99242 8.21638 8.49195 8.53125 8.06108C8.84943 7.62689 9.27367 7.28883 9.80398 7.04688C10.3343 6.80161 10.9292 6.67898 11.5888 6.67898C12.2682 6.67898 12.8582 6.80658 13.3587 7.06179C13.8625 7.31368 14.2519 7.65341 14.527 8.08097C14.8021 8.50852 14.9396 8.98082 14.9396 9.49787C14.9429 10.0713 14.7739 10.5518 14.4325 10.9396C14.0945 11.3274 13.6503 11.581 13.1001 11.7003V11.7798C13.8161 11.8793 14.3646 12.1444 14.7457 12.5753C15.1302 13.0028 15.3208 13.5348 15.3175 14.1712C15.3175 14.7412 15.1551 15.2517 14.8303 15.7024C14.5088 16.1499 14.0646 16.5012 13.4979 16.7564C12.9344 17.0116 12.2881 17.1392 11.5589 17.1392Z" fill="white"/>
</svg>
