<svg width="24" height="24" viewBox="0 0 24 24" fill="none" xmlns="http://www.w3.org/2000/svg">
<circle cx="12" cy="12" r="11" stroke="white" stroke-width="2"/>
<path d="M7.90483 17V15.6676L11.4396 12.2024C11.7777 11.861 12.0594 11.5578 12.2848 11.2926C12.5102 11.0275 12.6792 10.7706 12.7919 10.522C12.9046 10.2734 12.9609 10.0083 12.9609 9.72656C12.9609 9.40507 12.888 9.12997 12.7422 8.90128C12.5964 8.66927 12.3958 8.49029 12.1406 8.36435C11.8854 8.2384 11.5954 8.17543 11.2706 8.17543C10.9358 8.17543 10.6425 8.24503 10.3906 8.38423C10.1387 8.52012 9.94318 8.71401 9.80398 8.96591C9.66809 9.2178 9.60014 9.51776 9.60014 9.86577H7.84517C7.84517 9.21946 7.99266 8.65767 8.28764 8.1804C8.58262 7.70312 8.98864 7.33357 9.50568 7.07173C10.026 6.8099 10.6226 6.67898 11.2955 6.67898C11.9782 6.67898 12.5781 6.80658 13.0952 7.06179C13.6122 7.317 14.0133 7.66667 14.2983 8.1108C14.5866 8.55492 14.7308 9.06203 14.7308 9.6321C14.7308 10.0133 14.6579 10.3878 14.5121 10.7557C14.3662 11.1236 14.1094 11.5312 13.7415 11.9787C13.3769 12.4261 12.8648 12.968 12.2053 13.6044L10.4503 15.3892V15.4588H14.8849V17H7.90483Z" fill="white"/>
</svg>
